<?xml version="1.0" encoding="UTF-8" standalone="no"?>
<!-- Created with Inkscape (http://www.inkscape.org/) -->
<svg xmlns:dc="http://purl.org/dc/elements/1.1/" xmlns:cc="http://creativecommons.org/ns#" xmlns:rdf="http://www.w3.org/1999/02/22-rdf-syntax-ns#" xmlns:svg="http://www.w3.org/2000/svg" xmlns="http://www.w3.org/2000/svg" xmlns:sodipodi="http://sodipodi.sourceforge.net/DTD/sodipodi-0.dtd" xmlns:inkscape="http://www.inkscape.org/namespaces/inkscape" width="422.27023" height="310.13977" id="svg2" version="1.1" inkscape:version="0.47 r22583" sodipodi:docname="horse.svg">
  <title id="title2862">Horse</title>
  <defs id="defs4"/>
  <sodipodi:namedview id="base" pagecolor="#ffffff" bordercolor="#666666" borderopacity="1.0" inkscape:pageopacity="0.0" inkscape:pageshadow="2" inkscape:zoom="0.98994949" inkscape:cx="349.78839" inkscape:cy="79.637066" inkscape:document-units="px" inkscape:current-layer="layer1" showgrid="false" inkscape:window-width="1280" inkscape:window-height="753" inkscape:window-x="-4" inkscape:window-y="-4" inkscape:window-maximized="1"/>
  <g inkscape:label="Layer 1" inkscape:groupmode="layer" id="layer1" transform="translate(115.70467,-301.85949)">
    <g id="g2868">
      <path id="path2832" d="m -112.12693,552.33667 c 15.661885,-26.04191 20.471463,-56.57896 34.02817,-83.56965 8.856053,-14.07802 -10.471785,-36.76871 10.071299,-45.00382 13.079198,-16.17309 23.897056,-36.34037 26.330852,-56.99369 -3.420606,-10.12805 -8.805068,-43.9459 10.052164,-30.52157 12.544281,17.54126 37.2332074,16.68653 42.834638,-5.89761 7.703474,-6.8062 12.196412,-27.99158 17.08191,-27.99084 11.823259,16.67184 10.720184,39.03738 5.100382,57.49286 11.333018,-14.5095 39.848382,3.91559 55.432261,11.52302 29.616214,20.72718 41.550944,60.71272 75.680214,76.01906 22.53431,10.62489 49.22109,7.72886 73.06785,4.86871 17.31109,-10.79256 37.72826,-15.65855 57.45969,-11.05558 22.61245,13.35584 2.17958,42.8399 10.13906,63.60668 -1.46868,20.47329 4.70449,44.08573 -9.92145,61.17431 -9.25062,13.61852 -27.38573,13.16789 -41.53483,18.40401 -26.56358,7.24376 -51.46056,20.41763 -79.34384,22.57166 -30.85659,1.98893 -62.11568,7.20885 -92.796216,0.71832 -17.387973,2.88366 -43.573395,-2.48387 -32.27027,-25.7572 3.674732,-19.54443 0.823598,-40.68982 10.917359,-58.5494 7.191881,-11.46558 -6.325665,-19.28222 -10.639839,-5.49549 -17.084823,15.17575 -38.046285,24.96784 -54.2464489,41.26287 -21.0118531,9.02123 -30.4502401,27.75424 -44.5164601,43.21989 -18.419994,11.02384 -50.634398,16.06023 -60.822875,-8.40649 -6.22722,-12.72029 -6.73156,-28.31341 -2.10362,-41.62005 z" style="fill:#000000;stroke:#000000;stroke-width:1px;stroke-linecap:butt;stroke-linejoin:miter;stroke-opacity:1"/>
      <path id="path2842" d="m -23.233509,444.25035 c 1.974822,0.14299 3.950167,-0.18766 5.924887,-0.04 0.09809,0.6179 0.364973,1.57937 1.179037,1.08898 0.824242,0.17635 2.242724,0.19771 1.967588,-1.02686 0.327577,-0.78654 1.484696,-0.38705 0.972923,0.42009 0.01614,0.75523 -1.286414,1.13946 -0.984354,0.10309 -0.140992,-1.10717 1.156395,-2.11901 2.115375,-1.37369 0.710833,0.18634 1.128879,-0.60945 1.082407,-1.116 0.530694,-0.0836 1.2550992,-0.26052 0.881661,-0.92502 0.4025655,-0.33904 1.4848208,-0.0761 1.0841398,-0.97191 -0.03261,-0.6779 -0.3147567,-1.40818 0.03002,-2.05089 0.2730586,0.36814 -0.2965776,0.88035 -0.1098744,0.22056 -0.010961,-1.06604 -0.020543,-2.13474 0.080424,-3.19729 -0.9766453,-0.65201 -2.1670734,-0.13611 -3.2289534,-0.0719 -0.788207,0.17601 -0.93099,-0.83096 -1.119361,-1.14419 -0.485001,0.029 -1.065966,-0.18043 -0.809678,-0.71926 -0.550849,-0.76634 -1.542702,-0.18182 -2.303885,-0.24991 -1.056886,-0.14186 -2.141482,-0.0269 -3.210133,-0.0517 -0.446312,-0.17603 -1.170736,0.47714 -1.308954,-0.13054 0.903333,0.022 -0.491263,0.28558 -0.797565,0.10618 -0.739422,-0.23772 -1.626865,-0.0328 -1.57613,0.88928 -0.258548,0.36864 -1.173688,-0.0348 -0.933661,0.76364 0.237734,0.86257 -1.038143,0.91166 -0.985003,1.76989 -0.0015,1.07221 -2.03314,0.45669 -2.015486,1.72763 0.07448,2.04701 -0.03642,4.10494 0.07062,6.15482 0.384539,-2.20883 0.299864,-4.53789 1.232083,-6.62162 0.981122,-0.52824 1.351788,0.88382 1.552195,1.57378 0.516587,1.59379 0.869772,3.23433 1.209675,4.87284 z" style="fill:#800000;stroke:#800000;stroke-width:1px;stroke-linecap:butt;stroke-linejoin:miter;stroke-opacity:1"/>
      <path id="path2837" d="m -58.588848,600.82399 c 0.946495,0.28472 0.87014,-0.28539 0.851711,-0.83379 0.785308,0.0942 1.572272,-0.87044 1.127271,-0.87909 0.182973,1.79232 2.058337,-0.11733 1.180863,-1.12394 -0.649984,-1.27331 0.605677,-1.4677 1.496804,-1.09867 0.960044,-1.00097 0.785415,-2.85848 2.189619,-3.25595 0.179345,-0.28345 0.321197,-1.25772 1.178386,-0.98631 0.358562,-1.09869 0.885875,-2.9358 1.975933,-3.03907 0.379792,-0.96249 -0.189457,-2.40349 0.960154,-2.89594 0.0232,-0.5408 0.346622,-1.57121 1.059091,-0.98093 -0.305097,-0.96137 0.776924,-1.40637 1.142433,-1.57027 -0.03921,-0.9972 -0.536198,-2.95557 1.131923,-2.74824 -0.323064,-0.74912 -0.387969,-2.32258 0.858106,-1.801 -0.05563,-0.72956 -0.256913,-2.75278 1.010152,-2.0203 -0.393402,1.77485 -1.584109,0.20834 -1.018482,-0.82479 0.379642,-1.40715 2.156869,1.05812 2.106224,-0.9462 -0.160613,-1.42539 -0.04692,-2.85615 -0.07759,-4.28993 0,0.67344 0,1.34687 0,2.02031 -0.375209,-1.31368 0.929913,-3.84795 -0.990573,-4.11968 -0.628623,-1.129 0.494209,-0.78322 0.889839,-0.17236 0.424246,-1.10997 -1.927272,-2.34718 -1.595134,-1.79886 0.777278,0.19836 -1.87167,-0.22843 -2.247472,0.17939 0.0041,2.35113 -2.966223,-0.58791 -3.217646,1.63542 -0.141494,0.26827 -1.49403,0.25448 -0.977193,1.19538 -1.393236,-0.27374 -0.623421,1.36152 -1.865286,1.14565 -0.384997,0.84118 0.457924,2.14978 -1.092582,2.11949 0.326956,1.19121 -1.873788,0.6618 -1.046876,2.05828 0.259338,0.73189 0.152597,2.31625 -0.989062,1.79794 0.512478,1.31438 -1.587646,0.84986 -1.004135,2.2281 0.143104,1.25639 -1.39784,0.55556 -0.960512,1.58224 -0.672354,0.22237 -1.304892,0.40416 -1.17365,1.17742 -1.792567,-0.30277 -0.04998,2.6934 -1.97106,2.1853 0.751691,1.12704 -1.509243,0.71128 -1.059398,1.85531 -1.792565,-0.30277 -0.04998,2.6934 -1.97106,2.1853 0.740716,1.12186 -1.491161,0.72655 -1.077752,1.84945 -1.237571,-0.0402 -0.658973,1.27601 -1.877734,1.29364 -0.137279,0.82813 0.336408,2.17893 -1.14302,2.00548 -0.868619,-0.0344 -1.965804,0.89099 -0.604651,0.93333 0.414211,1.42822 -1.853587,0.41006 -1.398778,1.71098 -0.839388,1.30218 1.275034,3.17596 1.599595,2.03995 -1.211621,-0.60829 -2.166446,0.73238 -0.495041,0.99029 0.458061,-0.0659 2.404505,0.40929 1.314161,0.1329 2.071681,-0.95599 2.240421,1.82482 3.932022,2.09676 1.381055,0.31717 2.63631,-0.50709 3.850399,-1.03299 z" style="fill:#800000;stroke:#800000;stroke-width:1px;stroke-linecap:butt;stroke-linejoin:miter;stroke-opacity:1"/>
      <path transform="matrix(0.74433233,0,0,0.74433233,-5.420935,111.83612)" d="m -14.142136,441.21988 a 3.0304577,3.0304577 0 1 1 -6.060916,0 3.0304577,3.0304577 0 1 1 6.060916,0 z" sodipodi:ry="3.0304577" sodipodi:rx="3.0304577" sodipodi:cy="441.21988" sodipodi:cx="-17.172594" id="path2854" style="color:#000000;fill:#d40000;fill-opacity:1;fill-rule:nonzero;stroke:#d40000;stroke-width:2;stroke-linecap:butt;stroke-linejoin:miter;stroke-miterlimit:4;stroke-opacity:1;stroke-dasharray:none;stroke-dashoffset:0;marker:none;visibility:visible;display:inline;overflow:visible;enable-background:accumulate" sodipodi:type="arc"/>
    </g>
  </g>
  <metadata>
    <rdf:RDF>
      <cc:Work>
        <dc:format>image/svg+xml</dc:format>
        <dc:type rdf:resource="http://purl.org/dc/dcmitype/StillImage"/>
        <cc:license rdf:resource="http://creativecommons.org/licenses/publicdomain/"/>
        <dc:publisher>
          <cc:Agent rdf:about="http://openclipart.org/">
            <dc:title>Open Clip Art Library</dc:title>
          </cc:Agent>
        </dc:publisher>
        <dc:title>Horse</dc:title>
        <dc:date>2010-05-08T18:08:30</dc:date>
        <dc:description>A horse.</dc:description>
        <dc:source>http://openclipart.org/detail/59371/horse-by-mazeo</dc:source>
        <dc:creator>
          <cc:Agent>
            <dc:title>mazeo</dc:title>
          </cc:Agent>
        </dc:creator>
        <dc:subject>
          <rdf:Bag>
            <rdf:li>animals</rdf:li>
            <rdf:li>clip art</rdf:li>
            <rdf:li>clipart</rdf:li>
            <rdf:li>horse</rdf:li>
            <rdf:li>mammals</rdf:li>
          </rdf:Bag>
        </dc:subject>
      </cc:Work>
      <cc:License rdf:about="http://creativecommons.org/licenses/publicdomain/">
        <cc:permits rdf:resource="http://creativecommons.org/ns#Reproduction"/>
        <cc:permits rdf:resource="http://creativecommons.org/ns#Distribution"/>
        <cc:permits rdf:resource="http://creativecommons.org/ns#DerivativeWorks"/>
      </cc:License>
    </rdf:RDF>
  </metadata>
</svg>
